<svg id="svg" version="1.1" xmlns="http://www.w3.org/2000/svg" xmlns:xlink="http://www.w3.org/1999/xlink" width="400" height="400" viewBox="0, 0, 400,400"><g id="svgg"><path id="path0" d="M220.790 26.705 C 220.455 27.087,217.925 29.560,215.169 32.200 C 185.492 60.626,174.721 71.358,162.985 84.196 C 160.573 86.834,158.142 89.444,157.581 89.996 C 157.021 90.548,156.279 91.412,155.932 91.916 C 155.586 92.420,154.514 93.681,153.551 94.719 C 152.588 95.757,150.542 98.045,149.004 99.803 C 147.465 101.561,146.114 103.090,146.001 103.200 C 145.888 103.310,145.318 104.030,144.735 104.800 C 144.152 105.570,143.067 106.835,142.323 107.610 C 141.580 108.386,140.695 109.415,140.357 109.897 C 140.020 110.379,139.002 111.634,138.096 112.686 C 137.189 113.739,134.418 117.120,131.938 120.200 C 129.457 123.280,127.287 125.860,127.114 125.933 C 126.941 126.007,126.800 126.245,126.800 126.462 C 126.800 126.679,126.575 127.086,126.300 127.365 C 126.025 127.645,125.350 128.470,124.800 129.200 C 124.250 129.930,123.614 130.723,123.387 130.963 C 123.160 131.204,122.538 132.030,122.006 132.800 C 121.474 133.570,120.923 134.290,120.782 134.400 C 120.641 134.510,118.323 137.570,115.632 141.200 C 112.941 144.830,110.520 148.074,110.251 148.409 C 109.983 148.744,109.150 149.910,108.400 151.000 C 107.650 152.090,106.809 153.256,106.530 153.591 C 105.129 155.277,87.939 180.536,87.468 181.600 C 87.322 181.930,86.310 183.550,85.220 185.200 C 83.190 188.271,79.347 194.448,77.650 197.367 C 77.128 198.265,76.183 199.752,75.550 200.672 C 74.918 201.592,74.400 202.464,74.400 202.610 C 74.400 202.757,74.061 203.354,73.647 203.938 C 73.233 204.522,72.513 205.675,72.047 206.500 C 70.399 209.419,69.693 210.637,67.667 214.057 C 66.541 215.959,65.073 218.569,64.404 219.857 L 63.189 222.200 111.394 222.302 L 159.600 222.403 159.600 299.037 L 159.600 375.671 160.900 374.591 C 161.615 373.998,163.010 372.767,164.001 371.856 C 164.991 370.945,167.961 368.221,170.601 365.801 C 182.192 355.177,207.316 330.148,211.800 324.756 C 212.926 323.402,217.960 317.801,222.564 312.778 C 223.684 311.557,225.585 309.397,226.790 307.978 C 227.994 306.560,229.075 305.310,229.193 305.200 C 229.310 305.090,231.196 302.840,233.383 300.200 C 235.569 297.560,237.458 295.310,237.579 295.200 C 237.701 295.090,238.483 294.149,239.319 293.110 C 240.154 292.070,241.054 290.986,241.319 290.700 C 241.583 290.414,242.428 289.375,243.194 288.390 C 243.961 287.406,244.811 286.330,245.082 286.000 C 245.353 285.670,246.497 284.230,247.625 282.800 C 248.753 281.370,249.975 279.840,250.341 279.400 C 250.707 278.960,252.175 277.070,253.603 275.200 C 255.032 273.330,256.299 271.710,256.419 271.600 C 256.540 271.490,257.071 270.770,257.600 270.000 C 258.129 269.230,258.661 268.510,258.782 268.400 C 259.174 268.044,267.324 256.914,269.200 254.172 C 272.538 249.294,274.178 246.967,274.399 246.800 C 274.910 246.412,293.600 218.166,293.600 217.781 C 293.600 217.657,294.306 216.517,295.168 215.247 C 296.031 213.977,297.085 212.322,297.510 211.569 C 298.979 208.969,306.090 196.999,306.402 196.600 C 306.574 196.380,307.094 195.525,307.557 194.700 C 308.021 193.875,308.785 192.525,309.257 191.700 C 311.853 187.153,315.600 180.331,315.600 180.151 C 315.600 180.068,294.825 180.000,269.433 180.000 C 244.041 180.000,222.981 179.891,222.633 179.757 C 222.059 179.537,222.000 172.381,222.000 102.757 C 222.000 60.541,221.865 26.002,221.700 26.005 C 221.535 26.008,221.126 26.323,220.790 26.705 " stroke="none" fill="#fbbb1b" fill-rule="evenodd"></path><path id="path1" d="M223.516 3.325 C 222.480 3.806,220.140 5.635,218.316 7.388 C 216.492 9.142,208.160 17.140,199.800 25.163 C 169.391 54.345,158.361 65.567,142.200 83.770 C 140.660 85.504,139.220 87.121,139.000 87.362 C 138.308 88.120,131.909 95.631,128.403 99.800 C 126.553 102.000,124.940 103.890,124.817 104.000 C 124.695 104.110,124.104 104.859,123.504 105.665 C 122.903 106.471,122.182 107.371,121.900 107.665 C 121.619 107.959,120.761 109.009,119.994 109.999 C 119.227 110.988,118.297 112.158,117.927 112.599 C 117.558 113.039,115.698 115.380,113.795 117.800 C 111.892 120.220,110.033 122.560,109.663 123.000 C 108.378 124.528,97.359 139.424,94.424 143.600 C 92.801 145.910,90.992 148.430,90.404 149.200 C 88.742 151.375,73.836 173.664,73.217 174.900 C 72.913 175.505,72.515 176.000,72.332 176.000 C 72.150 176.000,72.000 176.188,72.000 176.418 C 72.000 176.648,71.128 178.133,70.062 179.718 C 68.166 182.539,55.986 202.646,53.779 206.600 C 43.185 225.576,43.143 225.674,43.811 229.692 C 44.363 233.017,47.170 236.316,50.400 237.437 C 50.950 237.628,72.190 237.877,97.600 237.992 L 143.800 238.200 144.006 314.400 C 144.121 357.138,144.368 391.039,144.567 391.600 C 146.345 396.610,152.267 399.577,157.172 397.916 C 159.154 397.245,161.045 395.840,165.533 391.704 C 167.660 389.744,172.550 385.283,176.400 381.789 C 196.641 363.425,221.037 338.565,237.234 319.800 C 239.513 317.160,241.663 314.730,242.011 314.400 C 242.360 314.070,242.905 313.420,243.222 312.956 C 243.540 312.491,244.736 311.051,245.881 309.756 C 247.025 308.460,249.261 305.780,250.849 303.800 C 252.438 301.820,253.842 300.110,253.971 300.000 C 254.099 299.890,254.696 299.141,255.296 298.335 C 255.897 297.529,256.616 296.629,256.894 296.335 C 257.172 296.041,257.892 295.141,258.494 294.335 C 259.096 293.529,259.816 292.629,260.094 292.335 C 260.372 292.041,261.092 291.141,261.694 290.335 C 262.296 289.529,263.019 288.629,263.301 288.335 C 263.838 287.774,267.953 282.414,269.503 280.257 C 269.999 279.566,270.632 278.730,270.908 278.400 C 271.185 278.070,271.850 277.170,272.386 276.400 C 272.923 275.630,273.469 274.910,273.600 274.800 C 273.731 274.690,274.271 273.970,274.800 273.200 C 275.329 272.430,275.874 271.710,276.011 271.600 C 276.148 271.490,277.010 270.320,277.927 269.000 C 278.845 267.680,280.316 265.610,281.197 264.400 C 282.078 263.190,284.904 259.140,287.478 255.400 C 290.051 251.660,292.302 248.540,292.479 248.467 C 292.655 248.393,292.800 248.112,292.800 247.842 C 292.800 247.572,293.115 246.992,293.500 246.554 C 294.183 245.776,294.391 245.478,295.982 243.000 C 296.406 242.340,296.943 241.583,297.176 241.317 C 297.409 241.051,297.600 240.722,297.600 240.585 C 297.600 240.448,298.653 238.775,299.939 236.868 C 303.324 231.850,307.600 225.206,307.600 224.964 C 307.600 224.850,308.320 223.696,309.200 222.400 C 310.080 221.104,310.800 219.934,310.800 219.800 C 310.800 219.666,311.520 218.496,312.400 217.200 C 313.280 215.904,314.000 214.762,314.000 214.663 C 314.000 214.563,314.737 213.269,315.637 211.788 C 316.537 210.306,317.595 208.532,317.988 207.847 C 318.762 206.495,321.242 202.189,322.449 200.100 C 322.862 199.385,323.560 198.170,324.000 197.400 C 324.440 196.630,325.160 195.370,325.600 194.600 C 326.040 193.830,326.760 192.570,327.200 191.800 C 327.640 191.030,328.360 189.770,328.800 189.000 C 329.240 188.230,329.987 186.925,330.461 186.100 C 334.755 178.615,335.241 177.577,335.502 175.334 C 335.827 172.544,334.932 169.833,332.963 167.643 C 329.614 163.918,333.865 164.227,282.800 164.000 L 237.800 163.800 237.600 86.600 C 237.407 12.253,237.372 9.348,236.654 8.000 C 234.086 3.178,228.278 1.111,223.516 3.325 M222.800 102.200 L 222.800 179.200 269.376 179.200 C 299.922 179.200,316.038 179.337,316.199 179.599 C 316.335 179.819,314.231 183.894,311.523 188.656 C 305.488 199.269,305.257 199.667,303.176 203.064 C 302.255 204.569,301.191 206.340,300.812 207.000 C 299.896 208.598,294.407 217.586,293.729 218.600 C 291.090 222.546,284.400 232.847,284.400 232.964 C 284.400 233.152,275.705 245.917,272.660 250.200 C 271.409 251.960,269.635 254.480,268.718 255.800 C 266.812 258.544,254.009 275.697,253.641 276.000 C 253.507 276.110,252.588 277.276,251.599 278.592 C 244.273 288.331,228.285 307.295,215.899 320.936 C 208.733 328.829,189.734 348.697,187.940 350.174 C 187.423 350.599,183.490 354.313,179.200 358.426 C 168.796 368.401,159.919 376.397,159.522 376.152 C 159.345 376.042,159.200 341.493,159.200 299.376 L 159.200 222.800 111.067 222.800 C 84.593 222.800,62.818 222.685,62.677 222.543 C 62.536 222.402,62.929 221.367,63.551 220.243 C 64.596 218.356,65.087 217.489,67.146 213.900 C 67.556 213.185,69.106 210.530,70.591 208.000 C 72.076 205.470,73.652 202.771,74.094 202.002 C 74.535 201.233,75.415 199.851,76.048 198.930 C 76.682 198.009,77.200 197.159,77.200 197.041 C 77.200 196.793,80.186 192.034,80.792 191.317 C 81.016 191.051,81.200 190.742,81.200 190.631 C 81.200 190.519,82.215 188.847,83.456 186.914 C 84.697 184.981,86.288 182.500,86.992 181.400 C 89.524 177.445,96.833 166.517,99.700 162.400 C 101.309 160.090,103.250 157.300,104.014 156.200 C 104.778 155.100,105.867 153.570,106.433 152.800 C 106.999 152.030,108.313 150.230,109.353 148.800 C 110.393 147.370,111.462 145.930,111.728 145.600 C 111.994 145.270,112.654 144.370,113.195 143.600 C 113.736 142.830,114.321 142.020,114.495 141.800 C 114.669 141.580,116.654 138.965,118.906 135.990 C 121.158 133.014,123.810 129.580,124.800 128.360 C 125.790 127.139,127.050 125.536,127.600 124.799 C 128.522 123.563,129.555 122.269,131.269 120.205 C 131.637 119.762,133.701 117.240,135.857 114.600 C 153.513 92.973,173.083 71.896,195.800 50.040 C 218.953 27.765,221.684 25.200,222.248 25.200 C 222.715 25.200,222.800 36.991,222.800 102.200 " stroke="none" fill="#070606" fill-rule="evenodd"></path><path id="path2" d="M0.000 200.000 L 0.000 400.000 200.000 400.000 L 400.000 400.000 400.000 200.000 L 400.000 0.000 200.000 0.000 L 0.000 0.000 0.000 200.000 M232.403 3.100 C 234.845 4.339,237.103 6.997,237.900 9.572 C 238.293 10.840,238.400 27.556,238.400 87.387 L 238.400 163.587 283.500 163.693 L 328.600 163.800 330.251 164.683 C 332.171 165.710,335.200 168.985,335.200 170.033 C 335.200 170.429,335.380 170.864,335.600 171.000 C 337.115 171.936,335.327 179.636,332.814 183.000 C 332.650 183.220,331.976 184.390,331.317 185.600 C 330.657 186.810,329.731 188.475,329.259 189.300 C 328.787 190.125,328.040 191.430,327.600 192.200 C 327.160 192.970,326.440 194.230,326.000 195.000 C 325.560 195.770,324.840 197.030,324.400 197.800 C 323.960 198.570,323.240 199.830,322.800 200.600 C 322.360 201.370,321.612 202.675,321.137 203.500 C 320.663 204.325,320.077 205.360,319.836 205.800 C 319.474 206.461,313.155 217.042,311.481 219.791 C 311.217 220.225,310.325 221.610,309.500 222.869 C 308.675 224.127,308.000 225.346,308.000 225.578 C 308.000 225.810,307.820 226.000,307.600 226.000 C 307.380 226.000,307.200 226.188,307.200 226.418 C 307.200 226.648,306.300 228.170,305.200 229.800 C 304.100 231.430,303.200 232.849,303.200 232.953 C 303.200 233.142,297.595 241.713,295.715 244.400 C 295.176 245.170,292.976 248.410,290.827 251.600 C 285.754 259.129,278.408 269.363,277.955 269.533 C 277.760 269.607,277.600 269.888,277.600 270.158 C 277.600 270.428,277.280 270.998,276.889 271.425 C 276.498 271.851,275.742 272.830,275.208 273.600 C 274.675 274.370,274.131 275.090,274.000 275.200 C 273.869 275.310,273.329 276.030,272.800 276.800 C 272.271 277.570,271.735 278.290,271.608 278.400 C 271.481 278.510,270.308 280.040,269.000 281.800 C 267.693 283.560,266.479 285.180,266.302 285.400 C 266.126 285.620,265.069 286.970,263.953 288.400 C 262.838 289.830,261.627 291.362,261.262 291.805 C 259.252 294.250,258.504 295.184,257.600 296.382 C 257.050 297.111,256.265 298.088,255.855 298.553 C 255.445 299.019,254.635 300.029,254.055 300.797 C 253.475 301.566,252.528 302.736,251.950 303.397 C 251.373 304.059,248.429 307.527,245.409 311.105 C 222.396 338.367,201.538 359.753,170.612 387.800 C 168.429 389.780,165.233 392.687,163.510 394.260 C 156.564 400.600,148.070 400.190,144.853 393.359 C 144.552 392.722,144.148 391.887,143.953 391.505 C 143.753 391.111,143.600 357.908,143.600 314.605 L 143.600 238.400 97.396 238.400 C 51.420 238.400,51.182 238.396,49.420 237.567 C 45.836 235.883,42.800 231.296,42.800 227.567 C 42.800 225.291,45.045 220.769,53.206 206.600 C 55.107 203.300,56.918 200.150,57.231 199.600 C 57.544 199.050,57.899 198.510,58.021 198.400 C 58.142 198.290,58.552 197.533,58.931 196.719 C 59.310 195.904,59.840 195.004,60.110 194.719 C 60.379 194.433,60.979 193.480,61.443 192.600 C 61.907 191.720,64.213 187.940,66.568 184.200 C 68.924 180.460,71.190 176.860,71.605 176.200 C 72.020 175.540,76.204 169.240,80.903 162.200 C 88.526 150.778,91.109 147.049,93.026 144.695 C 93.342 144.308,93.600 143.892,93.600 143.772 C 93.600 143.652,94.112 142.889,94.739 142.077 C 95.365 141.264,97.648 138.170,99.813 135.200 C 101.977 132.230,103.985 129.562,104.274 129.271 C 104.563 128.981,104.800 128.619,104.800 128.467 C 104.800 128.316,105.205 127.744,105.700 127.196 C 106.195 126.648,107.704 124.742,109.053 122.959 C 110.403 121.177,111.789 119.377,112.135 118.959 C 112.481 118.542,113.893 116.760,115.273 115.000 C 116.654 113.240,117.877 111.710,117.993 111.600 C 118.108 111.490,119.725 109.510,121.587 107.200 C 123.448 104.890,125.068 102.910,125.186 102.800 C 125.305 102.690,126.748 100.980,128.394 99.000 C 131.249 95.565,141.139 84.020,141.587 83.600 C 141.704 83.490,143.328 81.690,145.197 79.600 C 158.137 65.122,171.677 51.428,199.318 24.864 C 215.477 9.335,221.730 3.570,223.118 2.925 C 225.946 1.609,229.600 1.678,232.403 3.100 " stroke="none" fill="#fff" fill-rule="evenodd"></path><path id="path3" d="M237.796 87.800 C 237.796 129.600,237.843 146.641,237.900 125.668 C 237.957 104.696,237.957 70.496,237.900 49.668 C 237.843 28.841,237.796 46.000,237.796 87.800 M215.348 31.270 C 173.569 71.224,157.619 87.944,135.857 114.600 C 133.701 117.240,131.637 119.762,131.269 120.205 C 129.555 122.269,128.522 123.563,127.600 124.799 C 127.050 125.536,125.790 127.139,124.800 128.360 C 123.810 129.580,121.158 133.014,118.906 135.990 C 116.654 138.965,114.669 141.580,114.495 141.800 C 114.321 142.020,113.736 142.830,113.195 143.600 C 112.654 144.370,111.994 145.270,111.728 145.600 C 111.462 145.930,110.393 147.370,109.353 148.800 C 108.313 150.230,106.999 152.030,106.433 152.800 C 105.867 153.570,104.778 155.100,104.014 156.200 C 103.250 157.300,101.309 160.090,99.700 162.400 C 96.833 166.517,89.524 177.445,86.992 181.400 C 86.288 182.500,84.697 184.981,83.456 186.914 C 82.215 188.847,81.200 190.519,81.200 190.631 C 81.200 190.742,81.016 191.051,80.792 191.317 C 80.186 192.034,77.200 196.793,77.200 197.041 C 77.200 197.159,76.682 198.009,76.048 198.930 C 75.415 199.851,74.535 201.233,74.094 202.002 C 73.652 202.771,72.076 205.470,70.591 208.000 C 69.106 210.530,67.556 213.185,67.146 213.900 C 65.087 217.489,64.596 218.356,63.551 220.243 C 62.929 221.367,62.536 222.402,62.677 222.543 C 62.818 222.685,84.593 222.800,111.067 222.800 L 159.200 222.800 159.200 299.376 C 159.200 341.493,159.345 376.042,159.522 376.152 C 159.919 376.397,168.796 368.401,179.200 358.426 C 183.490 354.313,187.423 350.599,187.940 350.174 C 189.734 348.697,208.733 328.829,215.899 320.936 C 228.285 307.295,244.273 288.331,251.599 278.592 C 252.588 277.276,253.507 276.110,253.641 276.000 C 254.009 275.697,266.812 258.544,268.718 255.800 C 269.635 254.480,271.409 251.960,272.660 250.200 C 275.705 245.917,284.400 233.152,284.400 232.964 C 284.400 232.847,291.090 222.546,293.729 218.600 C 294.407 217.586,299.896 208.598,300.812 207.000 C 301.191 206.340,302.255 204.569,303.176 203.064 C 305.257 199.667,305.488 199.269,311.523 188.656 C 314.231 183.894,316.335 179.819,316.199 179.599 C 316.038 179.337,299.922 179.200,269.376 179.200 L 222.800 179.200 222.800 102.200 C 222.800 36.991,222.715 25.200,222.248 25.200 C 221.944 25.200,218.839 27.932,215.348 31.270 M222.000 102.757 C 222.000 172.381,222.059 179.537,222.633 179.757 C 222.981 179.891,244.041 180.000,269.433 180.000 C 294.825 180.000,315.600 180.068,315.600 180.151 C 315.600 180.331,311.853 187.153,309.257 191.700 C 308.785 192.525,308.021 193.875,307.557 194.700 C 307.094 195.525,306.574 196.380,306.402 196.600 C 306.090 196.999,298.979 208.969,297.510 211.569 C 297.085 212.322,296.031 213.977,295.168 215.247 C 294.306 216.517,293.600 217.657,293.600 217.781 C 293.600 218.166,274.910 246.412,274.399 246.800 C 274.178 246.967,272.538 249.294,269.200 254.172 C 267.324 256.914,259.174 268.044,258.782 268.400 C 258.661 268.510,258.129 269.230,257.600 270.000 C 257.071 270.770,256.540 271.490,256.419 271.600 C 256.299 271.710,255.032 273.330,253.603 275.200 C 252.175 277.070,250.707 278.960,250.341 279.400 C 249.975 279.840,248.753 281.370,247.625 282.800 C 246.497 284.230,245.353 285.670,245.082 286.000 C 244.811 286.330,243.961 287.406,243.194 288.390 C 242.428 289.375,241.583 290.414,241.319 290.700 C 241.054 290.986,240.154 292.070,239.319 293.110 C 238.483 294.149,237.701 295.090,237.579 295.200 C 237.458 295.310,235.569 297.560,233.383 300.200 C 231.196 302.840,229.310 305.090,229.193 305.200 C 229.075 305.310,227.994 306.560,226.790 307.978 C 225.585 309.397,223.684 311.557,222.564 312.778 C 217.960 317.801,212.926 323.402,211.800 324.756 C 207.316 330.148,182.192 355.177,170.601 365.801 C 167.961 368.221,164.991 370.945,164.001 371.856 C 163.010 372.767,161.615 373.998,160.900 374.591 L 159.600 375.671 159.600 299.037 L 159.600 222.403 111.394 222.302 L 63.189 222.200 64.404 219.857 C 65.073 218.569,66.541 215.959,67.667 214.057 C 69.693 210.637,70.399 209.419,72.047 206.500 C 72.513 205.675,73.233 204.522,73.647 203.938 C 74.061 203.354,74.400 202.757,74.400 202.610 C 74.400 202.464,74.918 201.592,75.550 200.672 C 76.183 199.752,77.128 198.265,77.650 197.367 C 79.347 194.448,83.190 188.271,85.220 185.200 C 86.310 183.550,87.322 181.930,87.468 181.600 C 87.939 180.536,105.129 155.277,106.530 153.591 C 106.809 153.256,107.650 152.090,108.400 151.000 C 109.150 149.910,109.983 148.744,110.251 148.409 C 110.520 148.074,112.941 144.830,115.632 141.200 C 118.323 137.570,120.641 134.510,120.782 134.400 C 120.923 134.290,121.474 133.570,122.006 132.800 C 122.538 132.030,123.160 131.204,123.387 130.963 C 123.614 130.723,124.250 129.930,124.800 129.200 C 125.350 128.470,126.025 127.645,126.300 127.365 C 126.575 127.086,126.800 126.679,126.800 126.462 C 126.800 126.245,126.941 126.007,127.114 125.933 C 127.287 125.860,129.457 123.280,131.938 120.200 C 134.418 117.120,137.189 113.739,138.096 112.686 C 139.002 111.634,140.020 110.379,140.357 109.897 C 140.695 109.415,141.580 108.386,142.323 107.610 C 143.067 106.835,144.152 105.570,144.735 104.800 C 145.318 104.030,145.888 103.310,146.001 103.200 C 146.114 103.090,147.465 101.561,149.004 99.803 C 150.542 98.045,152.588 95.757,153.551 94.719 C 154.514 93.681,155.586 92.420,155.932 91.916 C 156.279 91.412,157.021 90.548,157.581 89.996 C 158.142 89.444,160.573 86.834,162.985 84.196 C 174.721 71.358,185.492 60.626,215.169 32.200 C 217.925 29.560,220.455 27.087,220.790 26.705 C 221.126 26.323,221.535 26.008,221.700 26.005 C 221.865 26.002,222.000 60.541,222.000 102.757 M196.378 28.300 L 195.000 29.800 196.500 28.422 C 197.325 27.663,198.000 26.988,198.000 26.922 C 198.000 26.616,197.662 26.904,196.378 28.300 M186.175 38.100 L 185.000 39.400 186.300 38.225 C 187.512 37.130,187.784 36.800,187.475 36.800 C 187.406 36.800,186.821 37.385,186.175 38.100 " stroke="none" fill="#98700c" fill-rule="evenodd"></path><path id="path4" d="M223.118 2.925 C 221.730 3.570,215.477 9.335,199.318 24.864 C 171.677 51.428,158.137 65.122,145.197 79.600 C 143.328 81.690,141.704 83.490,141.587 83.600 C 141.139 84.020,131.249 95.565,128.394 99.000 C 126.748 100.980,125.305 102.690,125.186 102.800 C 125.068 102.910,123.448 104.890,121.587 107.200 C 119.725 109.510,118.108 111.490,117.993 111.600 C 117.877 111.710,116.654 113.240,115.273 115.000 C 113.893 116.760,112.481 118.542,112.135 118.959 C 111.789 119.377,110.403 121.177,109.053 122.959 C 107.704 124.742,106.195 126.648,105.700 127.196 C 105.205 127.744,104.800 128.316,104.800 128.467 C 104.800 128.619,104.563 128.981,104.274 129.271 C 103.985 129.562,101.977 132.230,99.813 135.200 C 97.648 138.170,95.365 141.264,94.739 142.077 C 94.112 142.889,93.600 143.652,93.600 143.772 C 93.600 143.892,93.342 144.308,93.026 144.695 C 91.109 147.049,88.526 150.778,80.903 162.200 C 76.204 169.240,72.020 175.540,71.605 176.200 C 71.190 176.860,68.924 180.460,66.568 184.200 C 64.213 187.940,61.907 191.720,61.443 192.600 C 60.979 193.480,60.379 194.433,60.110 194.719 C 59.840 195.004,59.310 195.904,58.931 196.719 C 58.552 197.533,58.142 198.290,58.021 198.400 C 57.899 198.510,57.544 199.050,57.231 199.600 C 56.918 200.150,55.107 203.300,53.206 206.600 C 45.045 220.769,42.800 225.291,42.800 227.567 C 42.800 231.296,45.836 235.883,49.420 237.567 C 51.182 238.396,51.420 238.400,97.396 238.400 L 143.600 238.400 143.600 314.605 C 143.600 357.908,143.753 391.111,143.953 391.505 C 144.148 391.887,144.552 392.722,144.853 393.359 C 148.070 400.190,156.564 400.600,163.510 394.260 C 165.233 392.687,168.429 389.780,170.612 387.800 C 201.538 359.753,222.396 338.367,245.409 311.105 C 248.429 307.527,251.373 304.059,251.950 303.397 C 252.528 302.736,253.475 301.566,254.055 300.797 C 254.635 300.029,255.445 299.019,255.855 298.553 C 256.265 298.088,257.050 297.111,257.600 296.382 C 258.504 295.184,259.252 294.250,261.262 291.805 C 261.627 291.362,262.838 289.830,263.953 288.400 C 265.069 286.970,266.126 285.620,266.302 285.400 C 266.479 285.180,267.693 283.560,269.000 281.800 C 270.308 280.040,271.481 278.510,271.608 278.400 C 271.735 278.290,272.271 277.570,272.800 276.800 C 273.329 276.030,273.869 275.310,274.000 275.200 C 274.131 275.090,274.675 274.370,275.208 273.600 C 275.742 272.830,276.498 271.851,276.889 271.425 C 277.280 270.998,277.600 270.428,277.600 270.158 C 277.600 269.888,277.760 269.607,277.955 269.533 C 278.408 269.363,285.754 259.129,290.827 251.600 C 292.976 248.410,295.176 245.170,295.715 244.400 C 297.595 241.713,303.200 233.142,303.200 232.953 C 303.200 232.849,304.100 231.430,305.200 229.800 C 306.300 228.170,307.200 226.648,307.200 226.418 C 307.200 226.188,307.380 226.000,307.600 226.000 C 307.820 226.000,308.000 225.810,308.000 225.578 C 308.000 225.346,308.675 224.127,309.500 222.869 C 310.325 221.610,311.217 220.225,311.481 219.791 C 313.155 217.042,319.474 206.461,319.836 205.800 C 320.077 205.360,320.663 204.325,321.137 203.500 C 321.612 202.675,322.360 201.370,322.800 200.600 C 323.240 199.830,323.960 198.570,324.400 197.800 C 324.840 197.030,325.560 195.770,326.000 195.000 C 326.440 194.230,327.160 192.970,327.600 192.200 C 328.040 191.430,328.787 190.125,329.259 189.300 C 329.731 188.475,330.657 186.810,331.317 185.600 C 331.976 184.390,332.650 183.220,332.814 183.000 C 335.238 179.755,337.126 171.943,335.700 171.062 C 335.535 170.960,335.400 172.344,335.400 174.138 C 335.400 177.595,335.531 177.237,332.059 183.300 C 331.166 184.859,330.203 186.543,328.743 189.100 C 327.877 190.618,327.099 192.012,324.895 196.000 C 314.447 214.899,297.289 241.951,283.411 261.400 C 275.558 272.406,259.231 294.125,258.002 295.200 C 257.876 295.310,256.266 297.290,254.424 299.600 C 250.514 304.505,247.753 307.820,246.527 309.082 C 246.047 309.577,245.149 310.661,244.532 311.491 C 243.914 312.321,243.137 313.270,242.804 313.600 C 242.472 313.930,241.570 314.933,240.800 315.829 C 240.030 316.724,238.256 318.749,236.858 320.329 C 235.459 321.908,233.934 323.695,233.468 324.300 C 233.003 324.905,232.167 325.853,231.611 326.406 C 231.055 326.960,229.716 328.400,228.636 329.606 C 226.863 331.587,219.904 339.082,214.531 344.799 C 210.069 349.546,193.860 365.653,188.970 370.200 C 186.130 372.840,183.173 375.630,182.399 376.400 C 181.625 377.170,180.183 378.502,179.196 379.359 C 178.208 380.217,176.410 381.837,175.199 382.959 C 173.989 384.082,171.019 386.799,168.599 388.998 C 166.180 391.196,163.930 393.282,163.600 393.632 C 158.299 399.255,151.545 399.918,146.897 395.271 C 143.964 392.338,144.222 399.520,144.000 314.600 L 143.800 238.200 97.389 238.000 L 50.978 237.800 48.993 236.778 C 44.045 234.232,42.217 228.303,44.745 223.000 C 45.734 220.924,49.592 213.860,52.335 209.100 C 52.811 208.275,53.560 206.970,54.000 206.200 C 54.440 205.430,55.160 204.170,55.600 203.400 C 56.040 202.630,56.781 201.325,57.247 200.500 C 57.713 199.675,58.433 198.522,58.847 197.938 C 59.261 197.354,59.600 196.783,59.600 196.669 C 59.600 196.422,64.573 188.256,65.648 186.738 C 66.062 186.154,66.400 185.561,66.400 185.420 C 66.400 185.279,67.300 183.830,68.400 182.200 C 69.500 180.570,70.400 179.146,70.400 179.035 C 70.400 178.780,86.064 155.070,86.410 154.800 C 86.552 154.690,87.774 152.980,89.127 151.000 C 95.498 141.674,103.186 131.240,111.778 120.259 C 113.990 117.431,116.150 114.641,116.578 114.059 C 117.005 113.476,117.905 112.353,118.578 111.563 C 119.250 110.772,120.070 109.779,120.400 109.357 C 120.730 108.934,121.810 107.603,122.800 106.400 C 123.790 105.197,124.870 103.869,125.200 103.449 C 126.160 102.228,131.452 96.013,133.720 93.444 C 134.864 92.149,136.067 90.709,136.393 90.244 C 136.719 89.780,137.914 88.410,139.049 87.200 C 140.184 85.990,141.623 84.370,142.246 83.600 C 142.870 82.830,144.400 81.120,145.647 79.800 C 146.893 78.480,148.428 76.775,149.057 76.011 C 150.848 73.835,164.223 59.845,170.640 53.435 C 177.854 46.228,198.495 26.165,205.027 20.010 C 206.772 18.365,211.179 14.135,214.820 10.610 C 218.462 7.084,221.972 3.954,222.620 3.653 C 223.269 3.353,224.113 2.948,224.495 2.753 C 227.095 1.431,232.727 3.045,235.153 5.808 C 238.037 9.092,237.788 1.752,237.906 87.100 L 238.012 164.000 282.546 164.000 C 315.513 164.000,327.434 164.122,328.440 164.468 C 330.692 165.243,332.722 166.797,333.996 168.719 C 334.658 169.719,335.200 170.262,335.200 169.925 C 335.200 168.967,332.078 165.661,330.251 164.683 L 328.600 163.800 283.500 163.693 L 238.400 163.587 238.400 87.387 C 238.400 27.556,238.293 10.840,237.900 9.572 C 236.009 3.459,228.870 0.249,223.118 2.925 " stroke="none" fill="#909090" fill-rule="evenodd"></path></g></svg>